<svg id="Layer_1" data-name="Layer 1" xmlns="http://www.w3.org/2000/svg" xmlns:xlink="http://www.w3.org/1999/xlink" viewBox="0 0 748.26 595.28"><defs><style>.cls-1{fill:url(#linear-gradient);}.cls-2{fill:url(#linear-gradient-2);}.cls-3{fill:url(#linear-gradient-3);}.cls-4{fill:url(#linear-gradient-4);}.cls-5{fill:url(#linear-gradient-5);}.cls-6{fill:url(#linear-gradient-6);}.cls-7{fill:url(#linear-gradient-7);}.cls-8{fill:url(#linear-gradient-8);}.cls-9{fill:url(#linear-gradient-9);}.cls-10{fill:url(#linear-gradient-10);}.cls-11{fill:url(#linear-gradient-11);}.cls-12{fill:url(#linear-gradient-12);}.cls-13{fill:url(#linear-gradient-13);}.cls-14{fill:url(#linear-gradient-14);}.cls-15{fill:url(#linear-gradient-15);}.cls-16{fill:url(#linear-gradient-16);}.cls-17{fill:url(#linear-gradient-17);}.cls-18{fill:url(#linear-gradient-18);}.cls-19{fill:url(#linear-gradient-19);}.cls-20{fill:url(#linear-gradient-20);}.cls-21{fill:url(#linear-gradient-21);}</style><linearGradient id="linear-gradient" x1="8.91" y1="436.93" x2="207.11" y2="436.93" gradientUnits="userSpaceOnUse"><stop offset="0" stop-color="#92278f"/><stop offset="1" stop-color="#2b3990"/></linearGradient><linearGradient id="linear-gradient-2" x1="157.08" y1="497.69" x2="231.06" y2="497.69" xlink:href="#linear-gradient"/><linearGradient id="linear-gradient-3" x1="359.43" y1="497.69" x2="433.34" y2="497.69" xlink:href="#linear-gradient"/><linearGradient id="linear-gradient-4" x1="460.11" y1="496.62" x2="507.53" y2="496.62" xlink:href="#linear-gradient"/><linearGradient id="linear-gradient-5" x1="520.79" y1="497.59" x2="579.92" y2="497.59" xlink:href="#linear-gradient"/><linearGradient id="linear-gradient-6" x1="710.26" y1="499.52" x2="727.43" y2="499.52" xlink:href="#linear-gradient"/><linearGradient id="linear-gradient-7" x1="708.03" y1="432.23" x2="729.66" y2="432.23" xlink:href="#linear-gradient"/><linearGradient id="linear-gradient-8" x1="422.02" y1="210.15" x2="705.99" y2="210.15" xlink:href="#linear-gradient"/><linearGradient id="linear-gradient-9" x1="209.89" y1="335.47" x2="412.49" y2="335.47" xlink:href="#linear-gradient"/><linearGradient id="linear-gradient-10" x1="164.24" y1="471.74" x2="703.18" y2="471.74" xlink:href="#linear-gradient"/><linearGradient id="linear-gradient-11" x1="357.78" y1="569.76" x2="388.19" y2="569.76" xlink:href="#linear-gradient"/><linearGradient id="linear-gradient-12" x1="398.13" y1="569.76" x2="403.57" y2="569.76" xlink:href="#linear-gradient"/><linearGradient id="linear-gradient-13" x1="414.31" y1="569.76" x2="444.72" y2="569.76" xlink:href="#linear-gradient"/><linearGradient id="linear-gradient-14" x1="457.3" y1="556.86" x2="458" y2="556.86" xlink:href="#linear-gradient"/><linearGradient id="linear-gradient-15" x1="454.66" y1="569.76" x2="479.54" y2="569.76" xlink:href="#linear-gradient"/><linearGradient id="linear-gradient-16" x1="491.35" y1="569.76" x2="521" y2="569.76" xlink:href="#linear-gradient"/><linearGradient id="linear-gradient-17" x1="526.69" y1="569.76" x2="559.87" y2="569.76" xlink:href="#linear-gradient"/><linearGradient id="linear-gradient-18" x1="569.82" y1="569.75" x2="598.41" y2="569.75" xlink:href="#linear-gradient"/><linearGradient id="linear-gradient-19" x1="650.95" y1="569.76" x2="679.55" y2="569.76" xlink:href="#linear-gradient"/><linearGradient id="linear-gradient-20" x1="607.83" y1="569.76" x2="641.01" y2="569.76" xlink:href="#linear-gradient"/><linearGradient id="linear-gradient-21" x1="693.23" y1="569.76" x2="720.22" y2="569.76" xlink:href="#linear-gradient"/></defs><path class="cls-1" d="M196.21,407.72H183.88c-.77-17.09-1.37-33.57-1.7-47.46h-.61c-5.83,24.53-14.11,51.22-23.93,80.35l-33.43,98.46H101.14L67.71,440.61c-9.82-29.13-18.1-55.82-23.93-80.35h-.61c-.61,25.76-2.15,60.42-4,91.4l-5.52,88.63h-15a9.75,9.75,0,0,1-9.73-10.43L22,342.69a9.79,9.79,0,0,1,9.77-9.11H56.66l35.27,100c8.53,25.27,15.54,47.82,20.74,69.14,5.21-21.32,12.22-43.87,20.75-69.14l35.27-100H193.6a9.8,9.8,0,0,1,9.77,9.11l3.71,53.37A10.9,10.9,0,0,1,196.21,407.72Z"/><path class="cls-2" d="M216.8,544.92,215.43,533h-.59c-5.26,7.42-15.41,14-28.88,14-19.12,0-28.88-13.46-28.88-27.12,0-22.83,20.3-35.32,56.79-35.13v-1.95c0-7.81-2.15-21.86-21.47-21.86a48.1,48.1,0,0,0-15,2.49,10.77,10.77,0,0,1-13.52-6.78h0c7.81-5.07,19.13-8.39,31-8.39,28.88,0,35.91,19.71,35.91,38.64v35.32c0,3.21.06,6.39.2,9.46a12.62,12.62,0,0,1-12.64,13.18Zm-2.54-48.2c-18.73-.39-40,2.92-40,21.27,0,11.12,7.41,16.39,16.19,16.39,12.3,0,20.1-7.81,22.83-15.81a17.77,17.77,0,0,0,1-5.46Z"/><path class="cls-3" d="M419.14,544.92,417.77,533h-.58c-5.27,7.42-15.42,14-28.89,14-19.12,0-28.87-13.46-28.87-27.12,0-22.83,20.29-35.32,56.78-35.13v-1.95c0-7.81-2.15-21.86-21.46-21.86a48.11,48.11,0,0,0-15,2.49,10.77,10.77,0,0,1-13.52-6.78h0c7.81-5.07,19.13-8.39,31-8.39,28.88,0,35.91,19.71,35.91,38.64v35.32c0,2.67,0,5.32.14,7.91a14.16,14.16,0,0,1-14.13,14.73Zm-2.54-48.2c-18.73-.39-40,2.92-40,21.27,0,11.12,7.41,16.39,16.19,16.39,12.3,0,20.1-7.81,22.84-15.81a18.05,18.05,0,0,0,1-5.46Z"/><path class="cls-4" d="M460.89,479.93c0-11.12-.19-20.68-.78-29.46h5.5a9.83,9.83,0,0,1,9.83,9.51l.28,9h.78c4.3-12.69,14.64-20.69,26.15-20.69a18.59,18.59,0,0,1,4.88.59v9.83a5.8,5.8,0,0,1-5.78,5.78h-.07c-12.1,0-20.69,9.17-23,22.05a48.31,48.31,0,0,0-.78,8v37.74a12.61,12.61,0,0,1-12.6,12.61h-4.38Z"/><path class="cls-5" d="M522.36,527.35A45,45,0,0,0,545,534.18c12.49,0,18.35-6.24,18.35-14,0-8.19-4.88-12.68-17.57-17.36-17-6-25-15.42-25-26.74,0-15.22,12.3-27.71,32.59-27.71A50.9,50.9,0,0,1,565,449.66a11.42,11.42,0,0,1,8.09,14.84l-.75,2.16A36.79,36.79,0,0,0,553,461.2c-10.14,0-15.8,5.85-15.8,12.88,0,7.81,5.66,11.32,17.95,16,16.39,6.25,24.78,14.44,24.78,28.49,0,16.59-12.88,28.3-35.32,28.3a61.81,61.81,0,0,1-12-1.16,14,14,0,0,1-10.32-18.15Z"/><path class="cls-6" d="M718.84,448.45a16.1,16.1,0,0,1-8.58-2.46v94.45c0,10.17,7.69,12.61,17.17,12.61V446A16.11,16.11,0,0,1,718.84,448.45Z"/><circle class="cls-7" cx="718.85" cy="432.23" r="10.81"/><path class="cls-8" d="M424.1,397S401.45,248.2,505.58,180.12,659.09,94.68,702.48,12.58c0,0,54.73,393.81-267.65,395.14,0,0,152.84-80.09,217.59-259C652.42,148.75,559.56,314.28,424.1,397Z"/><path class="cls-9" d="M412.13,400.38s18-150.18-202.24-136.83c0,0,51.73,34.05,77.36,91.78.34.76.67,1.53,1,2.31,2.52,6.26,25.51,56.15,115.89,50.08,0,0-56.73-86.77-125.48-115.47C278.64,292.25,362.07,321,412.13,400.38Z"/><path class="cls-10" d="M619.14,436.45v28.86h.4a31.6,31.6,0,0,1,12.29-12.11,35.23,35.23,0,0,1,17.56-4.87c12.67,0,33,7.79,33,40.38V544.9h-6.53a10.63,10.63,0,0,1-10.64-10.63v-43.6c0-15.22-5.67-28.1-21.86-28.1-11.14,0-19.91,7.81-23,17.17-1,2.35-1.17,4.88-1.17,8.19v44.68a12.3,12.3,0,0,1-12.31,12.29H602V436.45H275.72v28.86h.39A31.6,31.6,0,0,1,288.4,453.2,35.37,35.37,0,0,1,306,448.33c12.7,0,33,7.79,33,40.38v91.43l-8.06-1.26a10.81,10.81,0,0,1-9.11-10.66V490.67c0-15.22-5.67-28.1-21.87-28.1-11.11,0-19.89,7.81-23,17.17-1,2.35-1.16,4.88-1.16,8.19v46.51a10.46,10.46,0,0,1-10.48,10.46h-6.69V436.45H164.24c.63-1.38,1.22-2.75,1.82-4.12,1.14-2.6,4.16-4.33,7.54-4.33h85V363.33l9.69,7.09a18.22,18.22,0,0,1,7.48,14.72V428H602V382.05a14.44,14.44,0,0,1,6.81-12.25l10.37-6.47V428h84a13.1,13.1,0,0,0,0,8.45Z"/><path class="cls-11" d="M357.78,556.82h3.34a4,4,0,0,1,3.64,2.34L373,577.1l8.24-18a3.94,3.94,0,0,1,3.58-2.3h3.39L376.89,580a4.85,4.85,0,0,1-4.36,2.72H370.4Z"/><path class="cls-12" d="M400,582.69h-1.84V560.06a3.24,3.24,0,0,1,3.24-3.24h2.2V579.1A3.6,3.6,0,0,1,400,582.69Z"/><path class="cls-13" d="M414.31,556.82h4.09a2.84,2.84,0,0,1,2.58,1.65l8.53,18.63,8-17.39a4.94,4.94,0,0,1,4.5-2.89h2.73l-11.51,23.6a4,4,0,0,1-3.64,2.27h-2.64Z"/><path class="cls-14" d="M457.3,556.82v.08a3.27,3.27,0,0,1,.7-.08Z"/><path class="cls-15" d="M460.09,560.27v7.85h16.52v3.45H460.09v7.67h19.45v3.45H454.66V560.16a3.33,3.33,0,0,1,2.64-3.26,3.27,3.27,0,0,1,.7-.08h21.54v3.45Z"/><path class="cls-16" d="M521,582.69h-5a3.55,3.55,0,0,1-2.68-1.21l-10.19-11.42-6.31,5.12v4.28a3.23,3.23,0,0,1-3.23,3.23h-2.2v-23a2.9,2.9,0,0,1,2.9-2.91h2.53v13.52L511.31,558a5,5,0,0,1,3.21-1.18h4.87L507,566.92Z"/><path class="cls-17" d="M545.6,556.82H541l-14.28,25.87h3.81a3.35,3.35,0,0,0,3-1.83l2-3.85H551.1l1.76,3.42a4.15,4.15,0,0,0,3.69,2.26h3.32Zm-8.36,16.74,6-11.74,6,11.74Z"/><path class="cls-18" d="M593,576.22V559.65a2.83,2.83,0,0,1,2.83-2.83h2.54v22.41a3.44,3.44,0,0,1-3.44,3.44h-1.53l-18.24-19v16.23a2.82,2.82,0,0,1-2.82,2.82h-2.56V556.82h4.92ZM575.2,562.51Zm-.64.47Zm.64.66Z"/><path class="cls-19" d="M674.17,576.23V559.66a2.83,2.83,0,0,1,2.83-2.83h2.55v22.41a3.44,3.44,0,0,1-3.45,3.44h-1.53l-18.24-19v16.23a2.82,2.82,0,0,1-2.82,2.82H651V556.83h4.93Zm-17.84-13.7Zm-.64.46Zm.64.66Z"/><path class="cls-20" d="M626.73,556.82H622.1l-14.27,25.87h3.76a3.45,3.45,0,0,0,3.06-1.87l2-3.81h15.62l2.06,4a3,3,0,0,0,2.74,1.68h4Zm-8.35,16.74,6-11.74,6,11.74Z"/><path class="cls-21" d="M718.49,561.08a10.64,10.64,0,0,0-5-3.18,25.75,25.75,0,0,0-8-1.08h-9.29a3,3,0,0,0-3,3v21.81a1.06,1.06,0,0,0,1.07,1.07h11.18a25.88,25.88,0,0,0,8-1.09,10.72,10.72,0,0,0,5-3.16,7.57,7.57,0,0,0,1.73-5v-7.33A7.52,7.52,0,0,0,718.49,561.08Zm-3.83,12.48a4.67,4.67,0,0,1-2.36,4.19,12.47,12.47,0,0,1-6.64,1.49h-7v-19h7a12.47,12.47,0,0,1,6.64,1.49,4.68,4.68,0,0,1,2.36,4.19Z"/></svg>